<svg version="1.1" id="Layer_1" xmlns="http://www.w3.org/2000/svg" xmlns:xlink="http://www.w3.org/1999/xlink" x="0px" y="0px"
	 width="100%" viewBox="0 0 1024 1024" enable-background="new 0 0 1024 1024" xml:space="preserve">
<path fill="#000000" opacity="1.000000" stroke="none" 
	d="
M698.000000,1025.000000 
	C465.333344,1025.000000 233.166672,1025.000000 1.000000,1025.000000 
	C1.000000,683.666687 1.000000,342.333344 1.000000,1.000000 
	C342.333344,1.000000 683.666687,1.000000 1025.000000,1.000000 
	C1025.000000,342.333344 1025.000000,683.666687 1025.000000,1025.000000 
	C916.166687,1025.000000 807.333313,1025.000000 698.000000,1025.000000 
M262.034546,567.882202 
	C261.355286,575.714294 259.484955,583.668457 260.271851,591.350342 
	C261.497650,603.317139 260.054321,615.441467 262.916260,627.287781 
	C265.738434,638.969421 267.702606,650.872253 270.853394,662.457642 
	C276.964233,684.927551 286.950562,705.809082 299.305298,725.443359 
	C306.188141,736.381653 313.489197,747.301208 322.162445,756.804932 
	C332.416931,768.041321 343.743652,778.523254 355.730194,787.893555 
	C368.415466,797.809998 381.970093,806.829407 395.962189,814.807434 
	C415.564636,825.984375 436.767670,833.506775 458.847473,838.515259 
	C474.878418,842.151672 491.001556,844.818481 507.466400,844.992920 
	C516.143860,845.084900 524.835754,845.262390 533.498047,844.879944 
	C540.210815,844.583618 546.991150,843.978943 553.558594,842.624817 
	C565.811646,840.098267 578.222290,837.788940 590.033752,833.806519 
	C604.927673,828.784729 619.476990,822.594360 633.793823,816.071594 
	C640.481750,813.024536 646.426636,808.220825 652.433899,803.837219 
	C659.809875,798.454651 666.899048,792.678955 674.730774,786.792358 
	C675.807922,786.055481 677.005371,785.446411 677.944336,784.562683 
	C692.714722,770.660583 706.900635,756.123901 718.670593,739.610291 
	C734.939148,716.785095 747.768677,692.082397 755.558899,664.978821 
	C760.816650,646.686340 764.849182,628.186340 765.775085,608.558655 
	C765.848145,600.753906 766.005371,592.948669 765.952087,585.144775 
	C765.931335,582.103210 765.436646,579.064819 765.022949,575.116882 
	C763.042847,561.024048 761.493225,546.853882 758.980469,532.856689 
	C755.339905,512.577148 748.153748,493.382141 739.379761,474.788361 
	C727.794189,450.236389 713.624390,427.260101 697.301514,405.565765 
	C681.981567,385.204315 666.906067,364.658905 651.732788,344.187195 
	C636.170654,323.190857 620.194336,302.484863 605.182007,281.102264 
	C589.437866,258.677368 574.257751,235.833130 559.517944,212.733932 
	C547.690063,194.198044 536.794983,175.061920 525.681396,156.077774 
	C521.681458,149.245193 514.915222,146.803558 507.672394,150.057617 
	C501.141754,152.991714 499.744110,159.778946 496.502228,165.028534 
	C485.379181,183.039963 475.195404,201.641281 463.798676,219.471268 
	C451.063568,239.395187 437.701843,258.939270 424.052429,278.252594 
	C408.892548,299.703217 393.193665,320.776123 377.552917,341.882660 
	C365.386139,358.301239 352.888123,374.473999 340.662323,390.849365 
	C335.995392,397.100311 331.676544,403.611145 326.882050,410.622223 
	C326.175659,411.324585 325.305756,411.923615 324.786926,412.744537 
	C314.116364,429.627136 302.727539,446.113861 293.045349,463.547821 
	C281.742340,483.900116 273.436066,505.710205 268.358429,528.489807 
	C265.532227,541.168945 264.191986,554.179321 262.034546,567.882202 
z"/>
<path fill="#DD3B26" opacity="1.000000" stroke="none" 
	d="
M765.052795,609.036377 
	C764.849182,628.186340 760.816650,646.686340 755.558899,664.978821 
	C747.768677,692.082397 734.939148,716.785095 718.670593,739.610291 
	C706.900635,756.123901 692.714722,770.660583 677.944336,784.562683 
	C677.005371,785.446411 675.807922,786.055481 674.047241,786.901855 
	C672.863831,786.972900 672.363953,786.934448 672.070312,786.632446 
	C683.494263,774.783936 695.192322,763.620972 705.822693,751.520081 
	C724.016785,730.809082 738.113281,707.376099 747.186951,681.326721 
	C751.965576,667.608154 755.058716,653.275757 758.432495,639.106079 
	C760.070435,632.226807 760.861328,625.110718 761.575256,618.055176 
	C762.575134,608.174316 763.342224,598.259155 763.803040,588.339783 
	C763.990417,584.307007 763.055786,580.229187 762.740845,576.163330 
	C762.561890,573.853271 762.826172,571.494934 762.506470,569.212219 
	C761.286804,560.503784 760.370911,551.716187 758.485901,543.146301 
	C755.640625,530.210632 752.773438,517.205139 748.660522,504.640198 
	C742.280884,485.150635 734.030884,466.397430 722.822083,449.073181 
	C715.801575,438.222229 709.282532,427.033478 701.958435,416.395691 
	C693.120056,403.558502 683.742676,391.088470 674.462341,378.560425 
	C662.203979,362.012024 649.807556,345.565857 637.481628,329.067383 
	C629.235352,318.029541 620.739868,307.165649 612.829224,295.891815 
	C596.635986,272.814240 580.605103,249.618729 564.815308,226.263596 
	C555.603577,212.638260 546.745483,198.757538 538.195374,184.707443 
	C533.204895,176.506790 529.230103,167.694092 524.628113,159.249542 
	C518.662659,148.303116 509.230316,148.071411 502.937256,158.715500 
	C495.657410,171.028610 488.738525,183.559448 481.278076,195.760422 
	C470.792236,212.909119 460.181549,229.991119 449.187561,246.816330 
	C441.018433,259.318420 432.156311,271.367676 423.601685,283.617828 
	C415.623779,295.042023 407.811737,306.586975 399.616577,317.853180 
	C392.020660,328.295654 384.021118,338.444733 376.187012,348.713593 
	C369.993317,356.832184 363.781097,364.936646 357.576874,373.047211 
	C353.355988,378.565002 349.150299,384.094513 344.909576,389.596985 
	C339.649872,396.421631 334.360992,403.223785 328.770447,410.030212 
	C328.037140,410.017670 327.618073,410.010590 327.199036,410.003510 
	C331.676544,403.611145 335.995392,397.100311 340.662323,390.849365 
	C352.888123,374.473999 365.386139,358.301239 377.552917,341.882660 
	C393.193665,320.776123 408.892548,299.703217 424.052429,278.252594 
	C437.701843,258.939270 451.063568,239.395187 463.798676,219.471268 
	C475.195404,201.641281 485.379181,183.039963 496.502228,165.028534 
	C499.744110,159.778946 501.141754,152.991714 507.672394,150.057617 
	C514.915222,146.803558 521.681458,149.245193 525.681396,156.077774 
	C536.794983,175.061920 547.690063,194.198044 559.517944,212.733932 
	C574.257751,235.833130 589.437866,258.677368 605.182007,281.102264 
	C620.194336,302.484863 636.170654,323.190857 651.732788,344.187195 
	C666.906067,364.658905 681.981567,385.204315 697.301514,405.565765 
	C713.624390,427.260101 727.794189,450.236389 739.379761,474.788361 
	C748.153748,493.382141 755.339905,512.577148 758.980469,532.856689 
	C761.493225,546.853882 763.042847,561.024048 765.064819,576.034729 
	C765.088806,587.647156 765.070801,598.341797 765.052795,609.036377 
z"/>
<path fill="#DE3B27" opacity="1.000000" stroke="none" 
	d="
M671.864136,786.895935 
	C672.363953,786.934448 672.863831,786.972900 673.737915,787.042236 
	C666.899048,792.678955 659.809875,798.454651 652.433899,803.837219 
	C646.426636,808.220825 640.481750,813.024536 633.793823,816.071594 
	C619.476990,822.594360 604.927673,828.784729 590.033752,833.806519 
	C578.222290,837.788940 565.811646,840.098267 553.558594,842.624817 
	C546.991150,843.978943 540.210815,844.583618 533.498047,844.879944 
	C524.835754,845.262390 516.143860,845.084900 507.466400,844.992920 
	C491.001556,844.818481 474.878418,842.151672 458.847473,838.515259 
	C436.767670,833.506775 415.564636,825.984375 395.962189,814.807434 
	C381.970093,806.829407 368.415466,797.809998 355.730194,787.893555 
	C343.743652,778.523254 332.416931,768.041321 322.162445,756.804932 
	C313.489197,747.301208 306.188141,736.381653 299.305298,725.443359 
	C286.950562,705.809082 276.964233,684.927551 270.853394,662.457642 
	C267.702606,650.872253 265.738434,638.969421 262.916260,627.287781 
	C260.054321,615.441467 261.497650,603.317139 260.271851,591.350342 
	C259.484955,583.668457 261.355286,575.714294 262.287170,567.659424 
	C263.024628,567.956970 263.509460,568.477356 264.115967,569.357056 
	C264.002502,572.628906 263.497559,575.548950 263.577484,578.452881 
	C263.992157,593.516785 264.414856,608.583618 265.164307,623.633057 
	C265.359161,627.545837 266.720062,631.403381 267.574493,635.279907 
	C269.668884,644.781799 271.041992,654.520020 274.037598,663.729797 
	C280.369080,683.195618 288.164459,701.990479 298.891418,719.683350 
	C308.102692,734.876160 318.696106,748.878967 330.611847,761.796692 
	C347.494476,780.099060 366.893524,795.467041 388.494934,808.093506 
	C408.781647,819.951477 430.387634,828.471375 452.991913,834.328735 
	C465.482605,837.565430 478.335327,839.565063 491.122650,841.463806 
	C517.291504,845.349609 543.177673,842.542603 568.822266,836.948120 
	C575.760925,835.434509 582.509644,833.067261 589.378662,831.214478 
	C610.320618,825.565796 629.478699,816.072388 647.447815,804.109924 
	C655.734131,798.593628 663.734253,792.647278 671.864136,786.895935 
z"/>
<path fill="#DE3B27" opacity="1.000000" stroke="none" 
	d="
M263.994324,568.997742 
	C263.509460,568.477356 263.024628,567.956970 262.360962,567.238525 
	C264.191986,554.179321 265.532227,541.168945 268.358429,528.489807 
	C273.436066,505.710205 281.742340,483.900116 293.045349,463.547821 
	C302.727539,446.113861 314.116364,429.627136 324.786926,412.744537 
	C325.305756,411.923615 326.175659,411.324585 327.040527,410.312866 
	C327.618073,410.010590 328.037140,410.017670 328.617737,410.346863 
	C321.013458,423.197357 313.830994,436.139709 305.317139,448.137268 
	C296.866547,460.045624 290.235443,472.802246 285.240875,486.307495 
	C280.217102,499.891693 276.055267,513.853638 272.469147,527.893555 
	C269.010773,541.433167 266.769989,555.283752 263.994324,568.997742 
z"/>
<path fill="#E16253" opacity="1.000000" stroke="none" 
	d="
M765.413940,608.797485 
	C765.070801,598.341797 765.088806,587.647156 765.132324,576.488770 
	C765.436646,579.064819 765.931335,582.103210 765.952087,585.144775 
	C766.005371,592.948669 765.848145,600.753906 765.413940,608.797485 
z"/>
<path fill="#DB483D" opacity="1.000000" stroke="none" 
	d="
M264.115967,569.357056 
	C266.769989,555.283752 269.010773,541.433167 272.469147,527.893555 
	C276.055267,513.853638 280.217102,499.891693 285.240875,486.307495 
	C290.235443,472.802246 296.866547,460.045624 305.317139,448.137268 
	C313.830994,436.139709 321.013458,423.197357 328.932007,410.352295 
	C334.360992,403.223785 339.649872,396.421631 344.909576,389.596985 
	C349.150299,384.094513 353.355988,378.565002 357.576874,373.047211 
	C363.781097,364.936646 369.993317,356.832184 376.187012,348.713593 
	C384.021118,338.444733 392.020660,328.295654 399.616577,317.853180 
	C407.811737,306.586975 415.623779,295.042023 423.601685,283.617828 
	C432.156311,271.367676 441.018433,259.318420 449.187561,246.816330 
	C460.181549,229.991119 470.792236,212.909119 481.278076,195.760422 
	C488.738525,183.559448 495.657410,171.028610 502.937256,158.715500 
	C509.230316,148.071411 518.662659,148.303116 524.628113,159.249542 
	C529.230103,167.694092 533.204895,176.506790 538.195374,184.707443 
	C546.745483,198.757538 555.603577,212.638260 564.815308,226.263596 
	C580.605103,249.618729 596.635986,272.814240 612.829224,295.891815 
	C620.739868,307.165649 629.235352,318.029541 637.481628,329.067383 
	C649.807556,345.565857 662.203979,362.012024 674.462341,378.560425 
	C683.742676,391.088470 693.120056,403.558502 701.958435,416.395691 
	C709.282532,427.033478 715.801575,438.222229 722.822083,449.073181 
	C734.030884,466.397430 742.280884,485.150635 748.660522,504.640198 
	C752.773438,517.205139 755.640625,530.210632 758.485901,543.146301 
	C760.370911,551.716187 761.286804,560.503784 762.506470,569.212219 
	C762.826172,571.494934 762.561890,573.853271 762.740845,576.163330 
	C763.055786,580.229187 763.990417,584.307007 763.803040,588.339783 
	C763.342224,598.259155 762.575134,608.174316 761.575256,618.055176 
	C760.861328,625.110718 760.070435,632.226807 758.432495,639.106079 
	C755.058716,653.275757 751.965576,667.608154 747.186951,681.326721 
	C738.113281,707.376099 724.016785,730.809082 705.822693,751.520081 
	C695.192322,763.620972 683.494263,774.783936 672.070312,786.632446 
	C663.734253,792.647278 655.734131,798.593628 647.447815,804.109924 
	C629.478699,816.072388 610.320618,825.565796 589.378662,831.214478 
	C582.509644,833.067261 575.760925,835.434509 568.822266,836.948120 
	C543.177673,842.542603 517.291504,845.349609 491.122650,841.463806 
	C478.335327,839.565063 465.482605,837.565430 452.991913,834.328735 
	C430.387634,828.471375 408.781647,819.951477 388.494934,808.093506 
	C366.893524,795.467041 347.494476,780.099060 330.611847,761.796692 
	C318.696106,748.878967 308.102692,734.876160 298.891418,719.683350 
	C288.164459,701.990479 280.369080,683.195618 274.037598,663.729797 
	C271.041992,654.520020 269.668884,644.781799 267.574493,635.279907 
	C266.720062,631.403381 265.359161,627.545837 265.164307,623.633057 
	C264.414856,608.583618 263.992157,593.516785 263.577484,578.452881 
	C263.497559,575.548950 264.002502,572.628906 264.115967,569.357056 
M673.484009,578.766724 
	C674.043701,578.232666 674.603455,577.698669 675.802612,576.900146 
	C676.800903,575.425293 678.147400,574.076721 678.735901,572.453308 
	C680.997131,566.215637 683.527893,560.008667 685.019409,553.572693 
	C688.270874,539.542297 690.863708,525.576111 687.136902,510.923187 
	C683.964294,498.449402 680.439941,486.297058 674.057129,475.070801 
	C665.296570,459.662323 653.021729,447.346039 637.867432,438.760864 
	C626.022034,432.050171 613.169006,426.103180 598.780518,427.199615 
	C587.374207,428.068787 575.517212,427.915558 564.752808,431.169159 
	C548.550598,436.066376 534.477417,445.712341 522.583801,457.974792 
	C511.902771,468.987030 511.607941,466.214111 502.718445,457.828644 
	C492.045776,447.761078 480.173492,439.802490 467.112213,433.466766 
	C455.498383,427.833160 442.899750,427.342590 430.308868,427.172394 
	C426.352875,427.118896 422.130493,426.526550 418.482544,427.650085 
	C406.611115,431.306488 394.405304,434.389618 384.248444,442.141052 
	C381.413544,444.304535 378.713104,446.644196 375.277893,449.055237 
	C368.521820,456.687012 361.226532,463.915100 355.138550,472.047058 
	C346.436096,483.671295 341.775055,497.333679 339.841888,511.566925 
	C337.470764,529.024902 339.195007,546.393311 344.417023,563.284058 
	C346.197510,569.043091 346.888336,575.545166 353.998566,578.941101 
	C379.289032,578.940796 404.579498,578.940491 430.560425,578.797119 
	C431.983215,577.484985 433.846832,576.421570 434.752106,574.817383 
	C438.596985,568.004028 442.083832,560.989868 445.838898,554.124268 
	C451.969208,542.915955 458.085724,531.696655 464.452118,520.622314 
	C467.454987,515.398804 474.789154,512.902344 479.037048,515.054016 
	C484.484283,517.813232 488.385864,521.805359 490.111633,527.841248 
	C492.897766,537.585632 495.906677,547.266052 498.721466,557.002441 
	C504.871857,578.276917 510.948242,599.572815 517.099548,620.846985 
	C517.477844,622.155273 518.244446,623.351257 519.391357,625.794739 
	C520.810303,623.075195 521.700745,621.570190 522.407776,619.983459 
	C532.837769,596.577393 543.250427,573.163574 553.648499,549.743286 
	C555.644104,545.248474 559.194519,541.621155 563.856812,542.401245 
	C568.231445,543.133118 573.583679,545.394836 576.036011,548.775085 
	C581.942078,556.915894 586.262512,566.191650 591.558777,574.802734 
	C592.683228,576.630981 595.240906,577.577637 598.048950,578.924133 
	C623.002441,578.926819 647.955872,578.929504 673.484009,578.766724 
M569.891113,580.269836 
	C567.121521,576.180054 565.178284,576.503052 562.644958,581.982849 
	C557.966492,592.102722 553.546936,602.342224 548.986816,612.517212 
	C542.384094,627.249573 535.946716,642.061829 528.981567,656.621399 
	C527.447205,659.828613 524.474854,663.107910 521.330139,664.629517 
	C514.383728,667.990723 508.261261,664.482544 505.334534,655.199707 
	C498.271515,632.797546 491.704712,610.238892 484.945221,587.741089 
	C481.929657,577.704346 478.996826,567.641907 475.858215,557.643921 
	C475.369598,556.087402 473.979004,554.813965 473.005493,553.409668 
	C471.808075,554.655518 470.264435,555.713196 469.468628,557.177368 
	C463.746674,567.704956 458.266724,578.364319 452.529480,588.883362 
	C448.024963,597.142395 441.408112,601.399536 431.470123,601.131470 
	C413.995300,600.660217 396.498383,601.005371 379.010742,601.011597 
	C375.180206,601.013000 371.346008,600.946350 367.522919,601.119263 
	C366.929260,601.146118 366.386322,602.294373 365.841827,603.489441 
	C365.856995,603.677490 365.872131,603.865479 365.551300,604.622498 
	C366.283508,606.718384 366.594147,609.113159 367.827850,610.853577 
	C371.368256,615.848206 375.086853,620.747253 379.092712,625.374512 
	C386.135437,633.509705 393.234314,641.616699 400.693695,649.365784 
	C410.095856,659.133118 419.642395,668.788879 429.568817,678.017090 
	C440.621399,688.292175 451.812469,698.481812 463.596710,707.890137 
	C477.735565,719.178284 492.546692,729.626221 507.104858,740.386353 
	C511.835388,743.882812 516.747437,743.811096 521.437988,740.339722 
	C533.859436,731.146973 546.468323,722.181396 558.525635,712.529663 
	C572.113403,701.652771 585.627441,690.604004 598.338867,678.736084 
	C609.483398,668.331116 619.855164,657.021545 629.868408,645.503052 
	C640.515869,633.254883 650.392029,620.331909 660.449646,607.581116 
	C661.551880,606.183838 661.631714,603.980103 662.185669,602.150391 
	C660.470337,601.785889 658.755066,601.421387 656.092712,601.035889 
	C634.831848,601.023499 613.570984,601.021057 592.310120,600.992859 
	C585.860352,600.984314 580.728455,598.428345 577.281067,592.870667 
	C574.833496,588.924866 572.478943,584.921326 569.891113,580.269836 
z"/>
<path fill="#DE3B27" opacity="1.000000" stroke="none" 
	d="
M375.950989,448.903076 
	C378.713104,446.644196 381.413544,444.304535 384.248444,442.141052 
	C394.405304,434.389618 406.611115,431.306488 418.482544,427.650085 
	C422.130493,426.526550 426.352875,427.118896 430.308868,427.172394 
	C442.899750,427.342590 455.498383,427.833160 467.112213,433.466766 
	C480.173492,439.802490 492.045776,447.761078 502.718445,457.828644 
	C511.607941,466.214111 511.902771,468.987030 522.583801,457.974792 
	C534.477417,445.712341 548.550598,436.066376 564.752808,431.169159 
	C575.517212,427.915558 587.374207,428.068787 598.780518,427.199615 
	C613.169006,426.103180 626.022034,432.050171 637.867432,438.760864 
	C653.021729,447.346039 665.296570,459.662323 674.057129,475.070801 
	C680.439941,486.297058 683.964294,498.449402 687.136902,510.923187 
	C690.863708,525.576111 688.270874,539.542297 685.019409,553.572693 
	C683.527893,560.008667 680.997131,566.215637 678.735901,572.453308 
	C678.147400,574.076721 676.800903,575.425293 675.423950,576.972900 
	C675.045227,577.045593 674.927856,576.928345 674.952148,576.543274 
	C677.168457,569.710083 679.665955,563.347290 681.492859,556.797302 
	C686.273621,539.657715 687.407166,522.343079 682.963379,504.910431 
	C678.971924,489.252380 672.742493,474.843536 662.020264,462.335510 
	C651.004944,449.485535 637.770813,439.911804 622.089355,434.300232 
	C607.989319,429.254578 593.206238,428.574463 578.200500,430.851929 
	C562.768555,433.194061 549.255615,439.597076 536.992859,448.739655 
	C530.408813,453.648407 524.495728,459.486176 518.475891,465.114288 
	C512.187012,470.993835 512.074829,469.493805 506.740997,465.181976 
	C501.868469,461.243073 497.577606,456.594269 492.860565,452.451721 
	C478.480530,439.823029 461.666046,432.070404 442.732117,430.168396 
	C417.795593,427.663422 395.337128,434.438049 376.141418,450.691223 
	C376.051331,449.857361 376.001160,449.380188 375.950989,448.903076 
z"/>
<path fill="#DE3B27" opacity="1.000000" stroke="none" 
	d="
M657.039734,601.056885 
	C658.755066,601.421387 660.470337,601.785889 662.185669,602.150391 
	C661.631714,603.980103 661.551880,606.183838 660.449646,607.581116 
	C650.392029,620.331909 640.515869,633.254883 629.868408,645.503052 
	C619.855164,657.021545 609.483398,668.331116 598.338867,678.736084 
	C585.627441,690.604004 572.113403,701.652771 558.525635,712.529663 
	C546.468323,722.181396 533.859436,731.146973 521.437988,740.339722 
	C516.747437,743.811096 511.835388,743.882812 507.104858,740.386353 
	C492.546692,729.626221 477.735565,719.178284 463.596710,707.890137 
	C451.812469,698.481812 440.621399,688.292175 429.568817,678.017090 
	C419.642395,668.788879 410.095856,659.133118 400.693695,649.365784 
	C393.234314,641.616699 386.135437,633.509705 379.092712,625.374512 
	C375.086853,620.747253 371.368256,615.848206 367.827850,610.853577 
	C366.594147,609.113159 366.283508,606.718384 365.995026,604.400208 
	C366.625702,604.198303 366.812653,604.218628 367.169586,604.526489 
	C377.708893,617.851501 387.702637,631.212952 398.574982,643.816528 
	C406.268433,652.734985 414.837372,660.972961 423.569458,668.904785 
	C440.256012,684.062012 457.100494,699.066223 474.348724,713.575989 
	C483.947845,721.651123 494.381592,728.759277 504.645050,736.011902 
	C513.637085,742.366150 515.167175,742.273376 523.153442,736.257080 
	C535.803650,726.727112 548.623718,717.398438 560.907837,707.413635 
	C573.526733,697.156738 586.054626,686.699524 597.767029,675.440186 
	C610.161255,663.525452 621.942749,650.907104 633.252075,637.950378 
	C642.680054,627.149048 651.037964,615.413696 659.919189,604.035034 
	C659.968445,603.978027 660.064331,603.861755 660.151001,603.761108 
	C660.306641,603.384521 660.223816,603.149963 659.752930,602.781494 
	C658.690979,602.089783 657.865356,601.573364 657.039734,601.056885 
z"/>
<path fill="#E03B28" opacity="1.000000" stroke="none" 
	d="
M597.138245,578.930542 
	C595.240906,577.577637 592.683228,576.630981 591.558777,574.802734 
	C586.262512,566.191650 581.942078,556.915894 576.036011,548.775085 
	C573.583679,545.394836 568.231445,543.133118 563.856812,542.401245 
	C559.194519,541.621155 555.644104,545.248474 553.648499,549.743286 
	C543.250427,573.163574 532.837769,596.577393 522.407776,619.983459 
	C521.700745,621.570190 520.810303,623.075195 519.391357,625.794739 
	C518.244446,623.351257 517.477844,622.155273 517.099548,620.846985 
	C510.948242,599.572815 504.871857,578.276917 498.721466,557.002441 
	C495.906677,547.266052 492.897766,537.585632 490.111633,527.841248 
	C488.385864,521.805359 484.484283,517.813232 479.037048,515.054016 
	C474.789154,512.902344 467.454987,515.398804 464.452118,520.622314 
	C458.085724,531.696655 451.969208,542.915955 445.838898,554.124268 
	C442.083832,560.989868 438.596985,568.004028 434.752106,574.817383 
	C433.846832,576.421570 431.983215,577.484985 429.931976,578.683899 
	C428.180756,578.347168 427.058014,578.123657 425.953156,577.715698 
	C425.971069,577.531250 425.998993,577.160522 426.399841,577.084961 
	C429.828125,577.466125 431.647552,576.249329 432.957794,573.401672 
	C435.071869,568.807190 437.543304,564.371399 439.977722,559.930969 
	C447.571411,546.079956 455.467743,532.387756 462.753143,518.377319 
	C467.263458,509.703613 485.373840,510.705902 489.059906,519.563660 
	C492.906677,528.807556 495.908234,538.243469 498.551788,547.877991 
	C503.153717,564.649658 508.234497,581.289673 513.071655,597.997314 
	C515.143616,605.153992 517.108093,612.341858 519.354431,620.345886 
	C526.785950,603.558289 533.824463,587.514587 540.991333,571.528320 
	C544.655396,563.355225 548.625000,555.319397 552.316101,547.158020 
	C555.449585,540.229614 562.152283,539.072266 568.011963,539.457703 
	C571.827148,539.708801 576.482788,543.476746 578.793884,546.970886 
	C583.896484,554.685425 587.919617,563.141174 592.048950,571.460449 
	C593.986084,575.363098 596.227051,577.987000 600.969849,577.346680 
	C600.988647,577.547424 601.036926,577.947693 600.692749,577.981689 
	C599.278503,578.320618 598.208374,578.625549 597.138245,578.930542 
z"/>
<path fill="#DE3B27" opacity="1.000000" stroke="none" 
	d="
M365.819916,602.923950 
	C366.386322,602.294373 366.929260,601.146118 367.522919,601.119263 
	C371.346008,600.946350 375.180206,601.013000 379.010742,601.011597 
	C396.498383,601.005371 413.995300,600.660217 431.470123,601.131470 
	C441.408112,601.399536 448.024963,597.142395 452.529480,588.883362 
	C458.266724,578.364319 463.746674,567.704956 469.468628,557.177368 
	C470.264435,555.713196 471.808075,554.655518 473.005493,553.409668 
	C473.979004,554.813965 475.369598,556.087402 475.858215,557.643921 
	C478.996826,567.641907 481.929657,577.704346 484.945221,587.741089 
	C491.704712,610.238892 498.271515,632.797546 505.334534,655.199707 
	C508.261261,664.482544 514.383728,667.990723 521.330139,664.629517 
	C524.474854,663.107910 527.447205,659.828613 528.981567,656.621399 
	C535.946716,642.061829 542.384094,627.249573 548.986816,612.517212 
	C553.546936,602.342224 557.966492,592.102722 562.644958,581.982849 
	C565.178284,576.503052 567.121521,576.180054 569.783997,580.791199 
	C569.432312,581.581726 569.187683,581.850891 568.632568,582.067871 
	C567.883057,581.397644 567.443970,580.779541 566.840637,579.930054 
	C563.664429,586.763794 560.472595,593.432678 557.450317,600.177551 
	C552.192383,611.911865 547.212524,623.773865 541.786560,635.429016 
	C537.537720,644.555542 532.892944,653.503784 528.217834,662.423096 
	C526.163513,666.342407 519.650452,669.424011 514.524963,668.081665 
	C507.288391,666.186401 504.117401,660.632629 502.026123,654.375732 
	C499.251343,646.073608 497.041840,637.583252 494.562256,629.181824 
	C489.730682,612.811218 484.877350,596.447083 480.038666,580.078552 
	C477.719238,572.232361 475.412659,564.382385 472.845428,555.669312 
	C466.859955,567.241333 461.475647,577.874878 455.881653,588.397034 
	C451.226410,597.153381 444.736755,603.412415 433.481140,603.126831 
	C427.255585,603.090149 421.489624,602.971313 415.729584,603.106079 
	C411.184204,603.212463 406.646088,603.630859 401.764893,603.941772 
	C401.200378,603.936401 400.975769,603.899902 400.406616,603.674072 
	C388.648041,603.297729 377.233978,603.110840 365.819916,602.923950 
z"/>
<path fill="#DD3B26" opacity="1.000000" stroke="none" 
	d="
M375.614441,448.979126 
	C376.001160,449.380188 376.051331,449.857361 376.107605,450.718201 
	C376.113678,451.101868 376.058929,451.036316 375.882935,451.161316 
	C375.474731,451.456238 375.257111,451.643097 374.741943,451.990356 
	C367.982117,460.006042 360.569092,467.285919 355.296478,475.879089 
	C345.641571,491.614410 341.687500,509.387634 341.126556,527.748718 
	C340.938202,533.914001 341.989471,540.195740 343.117676,546.305359 
	C345.088745,556.979309 347.373138,567.620911 352.992310,577.373901 
	C352.999023,577.587708 353.011047,578.015259 353.022583,578.242554 
	C353.034149,578.469849 353.074921,578.923157 353.074921,578.923157 
	C346.888336,575.545166 346.197510,569.043091 344.417023,563.284058 
	C339.195007,546.393311 337.470764,529.024902 339.841888,511.566925 
	C341.775055,497.333679 346.436096,483.671295 355.138550,472.047058 
	C361.226532,463.915100 368.521820,456.687012 375.614441,448.979126 
z"/>
<path fill="#DD3B26" opacity="1.000000" stroke="none" 
	d="
M568.943054,582.119995 
	C569.187683,581.850891 569.432312,581.581726 569.879883,581.128052 
	C572.478943,584.921326 574.833496,588.924866 577.281067,592.870667 
	C580.728455,598.428345 585.860352,600.984314 592.310120,600.992859 
	C613.570984,601.021057 634.831848,601.023499 656.566223,601.046387 
	C657.865356,601.573364 658.690979,602.089783 659.760498,603.008850 
	C660.004333,603.411438 660.064331,603.861755 660.064331,603.861755 
	C660.064331,603.861755 659.968445,603.978027 659.720825,603.989380 
	C659.473206,604.000793 659.096619,603.845337 658.714050,603.671387 
	C656.513611,603.352600 654.695801,603.083801 652.877808,603.081909 
	C632.566711,603.060547 612.255554,603.080322 591.527222,603.055725 
	C588.745483,602.539062 586.225525,602.424988 584.043823,601.507202 
	C575.453552,597.893311 572.021118,590.112305 568.943054,582.119995 
z"/>
<path fill="#DA1C0A" opacity="1.000000" stroke="none" 
	d="
M353.536743,578.932129 
	C353.074921,578.923157 353.034149,578.469849 353.489990,578.244141 
	C377.942291,577.979004 401.938782,577.939575 425.935242,577.900146 
	C427.058014,578.123657 428.180756,578.347168 429.586731,578.755432 
	C404.579498,578.940491 379.289032,578.940796 353.536743,578.932129 
z"/>
<path fill="#DA1C0A" opacity="1.000000" stroke="none" 
	d="
M597.593628,578.927368 
	C598.208374,578.625549 599.278503,578.320618 601.157959,577.992188 
	C625.643311,577.938049 649.319336,577.907349 672.978149,578.140930 
	C672.943787,578.580872 672.926575,578.756531 672.909363,578.932190 
	C647.955872,578.929504 623.002441,578.926819 597.593628,578.927368 
z"/>
<path fill="#E16253" opacity="1.000000" stroke="none" 
	d="
M365.830872,603.206665 
	C377.233978,603.110840 388.648041,603.297729 399.963196,603.730835 
	C388.909363,604.064270 377.954468,604.151611 366.999573,604.238892 
	C366.812653,604.218628 366.625702,604.198303 366.163025,604.115723 
	C365.872131,603.865479 365.856995,603.677490 365.830872,603.206665 
z"/>
<path fill="#DE3B27" opacity="1.000000" stroke="none" 
	d="
M673.196655,578.849487 
	C672.926575,578.756531 672.943787,578.580872 672.962036,577.967407 
	C672.963013,577.529663 672.943359,577.179932 673.270691,577.114136 
	C674.041321,577.008301 674.484558,576.968323 674.927856,576.928345 
	C674.927856,576.928345 675.045227,577.045593 675.104187,577.105103 
	C674.603455,577.698669 674.043701,578.232666 673.196655,578.849487 
z"/>
<path fill="#000000" opacity="1.000000" stroke="none" 
	d="
M674.952148,576.543335 
	C674.484558,576.968323 674.041321,577.008301 672.812500,577.040710 
	C648.334961,577.070740 624.643005,577.108398 600.951050,577.145996 
	C596.227051,577.987000 593.986084,575.363098 592.048950,571.460449 
	C587.919617,563.141174 583.896484,554.685425 578.793884,546.970886 
	C576.482788,543.476746 571.827148,539.708801 568.011963,539.457703 
	C562.152283,539.072266 555.449585,540.229614 552.316101,547.158020 
	C548.625000,555.319397 544.655396,563.355225 540.991333,571.528320 
	C533.824463,587.514587 526.785950,603.558289 519.354431,620.345886 
	C517.108093,612.341858 515.143616,605.153992 513.071655,597.997314 
	C508.234497,581.289673 503.153717,564.649658 498.551788,547.877991 
	C495.908234,538.243469 492.906677,528.807556 489.059906,519.563660 
	C485.373840,510.705902 467.263458,509.703613 462.753143,518.377319 
	C455.467743,532.387756 447.571411,546.079956 439.977722,559.930969 
	C437.543304,564.371399 435.071869,568.807190 432.957794,573.401672 
	C431.647552,576.249329 429.828125,577.466125 425.934326,577.020203 
	C405.426178,577.019714 385.784393,576.998169 366.142609,577.004700 
	C361.756927,577.006104 357.371246,577.105713 352.985565,577.160156 
	C347.373138,567.620911 345.088745,556.979309 343.117676,546.305359 
	C341.989471,540.195740 340.938202,533.914001 341.126556,527.748718 
	C341.687500,509.387634 345.641571,491.614410 355.296478,475.879089 
	C360.569092,467.285919 367.982117,460.006042 374.991699,451.998840 
	C375.721985,451.587952 375.890472,451.312134 376.058929,451.036316 
	C376.058929,451.036316 376.113678,451.101868 376.147522,451.074890 
	C395.337128,434.438049 417.795593,427.663422 442.732117,430.168396 
	C461.666046,432.070404 478.480530,439.823029 492.860565,452.451721 
	C497.577606,456.594269 501.868469,461.243073 506.740997,465.181976 
	C512.074829,469.493805 512.187012,470.993835 518.475891,465.114288 
	C524.495728,459.486176 530.408813,453.648407 536.992859,448.739655 
	C549.255615,439.597076 562.768555,433.194061 578.200500,430.851929 
	C593.206238,428.574463 607.989319,429.254578 622.089355,434.300232 
	C637.770813,439.911804 651.004944,449.485535 662.020264,462.335510 
	C672.742493,474.843536 678.971924,489.252380 682.963379,504.910431 
	C687.407166,522.343079 686.273621,539.657715 681.492859,556.797302 
	C679.665955,563.347290 677.168457,569.710083 674.952148,576.543335 
z"/>
<path fill="#000000" opacity="1.000000" stroke="none" 
	d="
M367.169586,604.526489 
	C377.954468,604.151611 388.909363,604.064270 400.307709,603.920227 
	C400.975769,603.899902 401.200378,603.936401 402.222626,603.991089 
	C410.135040,604.007141 417.251312,604.089600 424.363922,603.964478 
	C427.560822,603.908264 430.750397,603.436951 433.943298,603.153992 
	C444.736755,603.412415 451.226410,597.153381 455.881653,588.397034 
	C461.475647,577.874878 466.859955,567.241333 472.845428,555.669312 
	C475.412659,564.382385 477.719238,572.232361 480.038666,580.078552 
	C484.877350,596.447083 489.730682,612.811218 494.562256,629.181824 
	C497.041840,637.583252 499.251343,646.073608 502.026123,654.375732 
	C504.117401,660.632629 507.288391,666.186401 514.524963,668.081665 
	C519.650452,669.424011 526.163513,666.342407 528.217834,662.423096 
	C532.892944,653.503784 537.537720,644.555542 541.786560,635.429016 
	C547.212524,623.773865 552.192383,611.911865 557.450317,600.177551 
	C560.472595,593.432678 563.664429,586.763794 566.840637,579.930054 
	C567.443970,580.779541 567.883057,581.397644 568.632568,582.067871 
	C572.021118,590.112305 575.453552,597.893311 584.043823,601.507202 
	C586.225525,602.424988 588.745483,602.539062 591.769775,603.412720 
	C614.651855,603.817139 636.874268,603.831238 659.096619,603.845337 
	C659.096619,603.845337 659.473206,604.000793 659.671509,604.046387 
	C651.037964,615.413696 642.680054,627.149048 633.252075,637.950378 
	C621.942749,650.907104 610.161255,663.525452 597.767029,675.440186 
	C586.054626,686.699524 573.526733,697.156738 560.907837,707.413635 
	C548.623718,717.398438 535.803650,726.727112 523.153442,736.257080 
	C515.167175,742.273376 513.637085,742.366150 504.645050,736.011902 
	C494.381592,728.759277 483.947845,721.651123 474.348724,713.575989 
	C457.100494,699.066223 440.256012,684.062012 423.569458,668.904785 
	C414.837372,660.972961 406.268433,652.734985 398.574982,643.816528 
	C387.702637,631.212952 377.708893,617.851501 367.169586,604.526489 
z"/>
<path fill="#E16253" opacity="1.000000" stroke="none" 
	d="
M660.151001,603.761108 
	C660.064331,603.861755 660.004333,603.411438 659.996826,603.184082 
	C660.223816,603.149963 660.306641,603.384521 660.151001,603.761108 
z"/>
<path fill="#ED4F3F" opacity="1.000000" stroke="none" 
	d="
M352.992310,577.373901 
	C357.371246,577.105713 361.756927,577.006104 366.142609,577.004700 
	C385.784393,576.998169 405.426178,577.019714 425.533478,577.095825 
	C425.998993,577.160522 425.971069,577.531250 425.953156,577.715698 
	C401.938782,577.939575 377.942291,577.979004 353.478455,578.016846 
	C353.011047,578.015259 352.999023,577.587708 352.992310,577.373901 
z"/>
<path fill="#ED4F3F" opacity="1.000000" stroke="none" 
	d="
M600.969849,577.346741 
	C624.643005,577.108398 648.334961,577.070740 672.485107,577.106567 
	C672.943359,577.179932 672.963013,577.529663 672.979126,577.703186 
	C649.319336,577.907349 625.643311,577.938049 601.502136,577.958191 
	C601.036926,577.947693 600.988647,577.547424 600.969849,577.346741 
z"/>
<path fill="#E16253" opacity="1.000000" stroke="none" 
	d="
M433.481140,603.126831 
	C430.750397,603.436951 427.560822,603.908264 424.363922,603.964478 
	C417.251312,604.089600 410.135040,604.007141 402.562500,603.959961 
	C406.646088,603.630859 411.184204,603.212463 415.729584,603.106079 
	C421.489624,602.971313 427.255585,603.090149 433.481140,603.126831 
z"/>
<path fill="#DE3B27" opacity="1.000000" stroke="none" 
	d="
M375.882935,451.161316 
	C375.890472,451.312134 375.721985,451.587952 375.303772,451.855316 
	C375.257111,451.643097 375.474731,451.456238 375.882935,451.161316 
z"/>
<path fill="#E16253" opacity="1.000000" stroke="none" 
	d="
M658.714050,603.671387 
	C636.874268,603.831238 614.651855,603.817139 592.187012,603.446045 
	C612.255554,603.080322 632.566711,603.060547 652.877808,603.081909 
	C654.695801,603.083801 656.513611,603.352600 658.714050,603.671387 
z"/>
</svg>